<svg xmlns="http://www.w3.org/2000/svg" width="128" height="128" viewBox="0 0 128 128"><rect width="100%" height="100%" fill="#DDDDDD"/><path fill="#999999" d="M33.04 49.025v29.64H27.5v-29.64h5.54Zm22.22 11.21-1.33 1.85q-.23.28-.44.45-.22.16-.63.16-.39 0-.76-.24-.37-.23-.88-.53-.51-.3-1.22-.53-.71-.24-1.75-.24-1.33 0-2.34.48-1 .49-1.67 1.39-.67.9-.99 2.18-.33 1.28-.33 2.9 0 1.68.36 3 .36 1.31 1.03 2.2.68.89 1.64 1.35.97.46 2.17.46 1.21 0 1.96-.29.75-.3 1.26-.66.52-.36.9-.66.37-.29.85-.29.61 0 .92.47l1.45 1.84q-.84.99-1.82 1.65-.98.67-2.04 1.07t-2.17.56q-1.12.17-2.23.17-1.95 0-3.67-.73t-3.01-2.12q-1.29-1.4-2.04-3.42-.75-2.01-.75-4.6 0-2.31.67-4.29.66-1.98 1.96-3.43 1.29-1.44 3.19-2.26 1.91-.82 4.39-.82 2.36 0 4.13.76t3.19 2.17Zm12.67-2.93q2.33 0 4.25.76t3.28 2.15q1.36 1.39 2.1 3.4t.74 4.49q0 2.5-.74 4.51t-2.1 3.43q-1.36 1.41-3.28 2.17-1.92.76-4.25.76-2.36 0-4.29-.76-1.92-.76-3.29-2.17-1.36-1.42-2.11-3.43-.75-2.01-.75-4.51 0-2.48.75-4.49.75-2.01 2.11-3.4 1.37-1.39 3.29-2.15 1.93-.76 4.29-.76Zm0 17.77q2.62 0 3.88-1.76 1.26-1.76 1.26-5.17 0-3.4-1.26-5.18-1.26-1.79-3.88-1.79-2.67 0-3.95 1.8-1.28 1.79-1.28 5.17 0 3.39 1.28 5.16t3.95 1.77Zm18.63-16.52.35 1.66q.64-.64 1.34-1.18.71-.54 1.5-.92t1.69-.6q.9-.21 1.97-.21 1.72 0 3.05.58 1.34.59 2.23 1.64.89 1.06 1.35 2.52.46 1.47.46 3.23v13.39h-5.06v-13.39q0-1.92-.88-2.98t-2.69-1.06q-1.31 0-2.46.6-1.15.59-2.17 1.62v15.21h-5.06v-21.03h3.09q.98 0 1.29.92Z"/></svg>