<svg xmlns="http://www.w3.org/2000/svg" width="512" height="512" viewBox="0 0 512 512"><rect width="100%" height="100%" fill="#DDDDDD"/><path fill="#999999" d="M114.035 251.405h6.83q2.52 0 4.39-.63 1.87-.62 3.11-1.8 1.24-1.17 1.85-2.85.61-1.69.61-3.76 0-1.97-.61-3.57-.61-1.6-1.84-2.72-1.22-1.12-3.09-1.72-1.87-.59-4.42-.59h-6.83v17.64Zm-9.15-24.71h15.98q4.93 0 8.53 1.15 3.61 1.16 5.95 3.23 2.35 2.08 3.49 4.97 1.14 2.89 1.14 6.32 0 3.57-1.19 6.54-1.19 2.98-3.57 5.12t-5.97 3.33q-3.59 1.19-8.38 1.19h-6.83v17.31h-9.15v-49.16Zm100.33 0h7.18l-15.27 49.16h-8.26l-10.74-33.59q-.45-1.23-.82-2.99-.2.85-.41 1.59-.2.75-.44 1.4l-10.85 33.59h-8.29l-15.23-49.16h7.65q1.19 0 1.98.56.8.56 1.08 1.51l8.36 29.41q.27 1.09.53 2.36l.52 2.67q.28-1.43.6-2.68.32-1.26.7-2.35l9.65-29.41q.27-.78 1.07-1.43.8-.64 1.96-.64h2.68q1.19 0 1.94.57.75.58 1.12 1.5l9.63 29.41q.71 2.11 1.29 4.86.44-2.68.98-4.86l8.37-29.41q.2-.85 1.04-1.46.83-.61 1.98-.61Zm23.57 30.6h15.64l-5.99-16.36q-.44-1.09-.92-2.58-.47-1.5-.95-3.23-.44 1.73-.92 3.25-.47 1.51-.91 2.63l-5.95 16.29Zm12.47-30.6 19.32 49.16h-7.08q-1.19 0-1.93-.6-.75-.59-1.13-1.47l-3.67-10.03h-20.36l-3.68 10.03q-.27.78-1.05 1.42-.78.65-1.94.65h-7.14l19.35-49.16h9.31Zm21.39 53.72h26.79v5.44h-26.79v-5.44Zm44.81-46.11-1.73 10.24q1.63-.34 3.13-.5 1.49-.15 2.89-.15 3.87 0 6.83 1.16 2.96 1.15 4.96 3.19 2.01 2.04 3.03 4.78t1.02 5.9q0 3.91-1.38 7.14-1.37 3.23-3.82 5.52-2.45 2.3-5.8 3.56-3.35 1.25-7.29 1.25-2.31 0-4.39-.47-2.07-.48-3.89-1.28-1.82-.8-3.37-1.83-1.54-1.04-2.77-2.2l2.59-3.57q.81-1.15 2.14-1.15.85 0 1.73.54.89.55 2.03 1.19 1.13.65 2.68 1.19 1.55.55 3.72.55 2.32 0 4.08-.75 1.77-.75 2.95-2.09 1.17-1.35 1.76-3.2.6-1.85.6-4.03 0-4.01-2.33-6.27t-6.89-2.26q-3.5 0-7.17 1.29l-5.24-1.5 4.08-23.86h24.28v3.57q0 1.8-1.12 2.92-1.12 1.12-3.81 1.12h-13.5Zm50.25 35.26h8.84v6.29h-27.2v-6.29h9.97v-28.66q0-1.7.1-3.5l-7.07 5.91q-.62.48-1.21.6-.6.12-1.12.01-.53-.1-.94-.35-.41-.26-.61-.56l-2.65-3.64 14.99-12.75h6.9v42.94Zm33.83-1.53h12.62q1.36 0 2.16.76.8.77.8 2.03v5.03h-33.73v-2.79q0-.85.36-1.78.35-.94 1.13-1.69l14.93-14.96q1.87-1.9 3.35-3.63 1.48-1.74 2.46-3.44.99-1.7 1.52-3.45.52-1.75.52-3.69 0-1.77-.51-3.11-.51-1.34-1.44-2.26-.94-.92-2.24-1.38-1.31-.46-2.95-.46-1.49 0-2.77.43-1.27.42-2.26 1.19-.98.76-1.66 1.78-.68 1.02-1.02 2.25-.58 1.56-1.5 2.07-.92.51-2.65.24l-4.42-.78q.51-3.54 1.97-6.21t3.66-4.45q2.19-1.79 5.03-2.69 2.84-.9 6.1-.9 3.4 0 6.22 1 2.82 1.01 4.83 2.84 2.01 1.84 3.13 4.42 1.12 2.59 1.12 5.75 0 2.72-.8 5.03t-2.14 4.42q-1.34 2.11-3.15 4.08-1.8 1.97-3.77 4.01l-11.08 11.33q1.59-.48 3.18-.74 1.58-.25 3-.25Z"/></svg>