<svg xmlns="http://www.w3.org/2000/svg" width="192" height="192" viewBox="0 0 192 192"><rect width="100%" height="100%" fill="#DDDDDD"/><path fill="#999999" d="M41.72 94.245h2.61q.96 0 1.68-.24.71-.24 1.19-.69.47-.45.7-1.09.24-.64.24-1.44 0-.75-.24-1.36-.23-.61-.7-1.04-.46-.43-1.18-.66-.72-.22-1.69-.22h-2.61v6.74Zm-3.5-9.45h6.11q1.88 0 3.26.44 1.38.45 2.28 1.24.9.79 1.33 1.9.44 1.1.44 2.41 0 1.37-.46 2.51-.45 1.13-1.36 1.95-.91.82-2.29 1.28-1.37.45-3.2.45h-2.61v6.62h-3.5v-18.8Zm38.36 0h2.75l-5.84 18.8h-3.16l-4.11-12.84q-.17-.47-.31-1.15-.08.33-.16.61-.07.29-.16.54l-4.15 12.84h-3.17l-5.83-18.8h2.93q.45 0 .76.22.3.21.41.57l3.2 11.25q.1.42.2.9.09.49.2 1.02.1-.54.23-1.02.12-.48.26-.9l3.69-11.25q.11-.29.41-.54.31-.25.75-.25h1.03q.45 0 .74.22.28.22.43.57l3.68 11.25q.27.81.49 1.86.17-1.03.38-1.86l3.2-11.25q.07-.32.39-.55.32-.24.76-.24Zm9.01 11.7h5.98l-2.29-6.25q-.16-.42-.35-.99-.18-.57-.36-1.23-.17.66-.35 1.24-.18.58-.35 1l-2.28 6.23Zm4.77-11.7 7.39 18.8h-2.71q-.45 0-.74-.23-.28-.23-.43-.56l-1.4-3.84h-7.79l-1.4 3.84q-.11.3-.4.54-.3.25-.75.25H79.4l7.4-18.8h3.56Zm8.18 20.54h10.24v2.08H98.54v-2.08Zm21.27-4.15h3.38v2.41h-10.4v-2.41h3.81v-10.95q0-.65.04-1.34l-2.71 2.26q-.23.18-.46.23-.23.04-.43 0-.2-.04-.36-.13-.15-.1-.23-.22l-1.01-1.39 5.73-4.87h2.64v16.41Zm9.29-10.75q0 1.58.82 2.4.81.83 2.3.83.78 0 1.39-.25.62-.25 1.03-.68.42-.42.63-1.01.22-.58.22-1.26 0-.77-.24-1.37-.23-.61-.66-1.02-.43-.42-1.02-.64-.59-.22-1.29-.22-.73 0-1.32.24-.58.24-1 .67-.41.43-.64 1.02-.22.59-.22 1.29Zm-1.57 13.16 5.84-7.29q.22-.28.41-.54.2-.26.38-.52-.65.42-1.43.63-.78.22-1.64.22-.97 0-1.91-.34-.93-.34-1.66-1.02-.73-.68-1.18-1.69-.45-1.01-.45-2.36 0-1.26.47-2.37.47-1.1 1.31-1.93.85-.83 2.03-1.32 1.18-.48 2.61-.48 1.45 0 2.6.46 1.15.45 1.96 1.27.81.82 1.25 1.97.43 1.14.43 2.5 0 .88-.15 1.66-.14.78-.42 1.5-.27.72-.66 1.41t-.87 1.36l-4.3 6.14q-.23.31-.67.53-.44.21-1 .21h-2.95Zm20.29-2.99h4.83q.52 0 .82.29.31.29.31.78v1.92h-12.9v-1.07q0-.32.14-.68.13-.36.43-.64l5.71-5.72q.72-.73 1.28-1.39.57-.67.94-1.32.38-.65.58-1.32.2-.67.2-1.41 0-.67-.19-1.19-.2-.51-.55-.86-.36-.35-.86-.53-.5-.17-1.13-.17-.57 0-1.06.16-.48.16-.86.46-.38.29-.64.68-.26.39-.39.86-.22.59-.57.79-.35.19-1.01.09l-1.69-.3q.19-1.35.75-2.37t1.4-1.7q.84-.69 1.92-1.03 1.09-.35 2.34-.35 1.3 0 2.37.39 1.08.38 1.85 1.08.77.7 1.2 1.69.43.99.43 2.2 0 1.04-.31 1.92-.31.89-.82 1.69-.51.81-1.2 1.56-.69.76-1.44 1.54l-4.24 4.33q.61-.19 1.21-.28.61-.1 1.15-.1Z"/></svg>